<svg width="1836" height="2615" xmlns="http://www.w3.org/2000/svg" xmlns:xlink="http://www.w3.org/1999/xlink" overflow="hidden"><defs><clipPath id="clip0"><rect x="17" y="-74" width="1836" height="2615"/></clipPath></defs><g clip-path="url(#clip0)" transform="translate(-17 74)"><rect x="108" y="-5" width="1730" height="708" stroke="#000000" stroke-width="2" stroke-miterlimit="8" fill="#FFFFFF"/><rect x="108" y="727" width="1730" height="1206" stroke="#000000" stroke-width="2" stroke-miterlimit="8" fill="#FFFFFF"/><rect x="109" y="1958" width="1729" height="505" stroke="#000000" stroke-width="2" stroke-miterlimit="8" fill="#FFFFFF"/><path d="M148.5 113.5 1085.5 113.5 1085.5 377.34C617 377.34 617 477.868 148.5 420.749Z" stroke="#C55A11" stroke-width="1.33333" stroke-miterlimit="8" fill="#FBE5D6" fill-rule="evenodd"/><path d="M147.5 514.516C147.5 505.571 151.829 498.32 157.169 498.32L278.535 497.261 542.556 497.618 586.389 496.5 633.652 497.975 953.211 497.975 1075.83 498.32C1081.17 498.32 1085.5 505.571 1085.5 514.516L1085.5 579.303C1085.5 588.249 1081.17 595.5 1075.83 595.5L953.991 595.156 586.989 593.472 542.946 594.441 279.315 593.727 157.169 595.5C151.829 595.5 147.5 588.249 147.5 579.303L147.5 514.516Z" stroke="#2F5597" stroke-width="1.33333" stroke-miterlimit="8" fill="#DEEBF7" fill-rule="evenodd"/><text font-family="Calibri,Calibri_MSFontService,sans-serif" font-weight="700" font-size="41" transform="translate(294.672 535)">read QC, clip reads per run per library<tspan font-weight="400" x="181.667" y="49">AdapterRemoval</tspan></text><path d="M148.5 828.958C148.5 819.97 152.824 812.685 158.158 812.685L280.565 812.769 544.109 812.5 587.747 812.57 957.248 812.769 1075.84 812.685C1081.18 812.685 1085.5 819.97 1085.5 828.958L1085.5 894.052C1085.5 903.04 1081.18 910.326 1075.84 910.326L957.832 910.231 617.296 910.5 588.747 910.303 544.109 910.5 282.025 909.692 158.158 910.326C152.824 910.326 148.5 903.04 148.5 894.052L148.5 828.958Z" stroke="#2F5597" stroke-width="1.33333" stroke-miterlimit="8" fill="#DEEBF7" fill-rule="evenodd"/><text font-family="Calibri,Calibri_MSFontService,sans-serif" font-weight="700" font-size="41" transform="translate(442.066 850)">mark PCR duplicates<tspan font-weight="400" x="19.3933" y="49">samtools markdup</tspan></text><path d="M148.5 680.459C148.5 671.406 152.833 664.067 158.179 664.067L280.261 664.329 544.66 664.058 588.003 663.5 956.631 663.787 1077.82 664.067C1083.17 664.067 1087.5 671.406 1087.5 680.459L1087.5 746.027C1087.5 755.08 1083.17 762.419 1077.82 762.419L957.802 762.5 588.003 761.945 544.953 762.229 280.846 761.958 158.179 762.419C152.833 762.419 148.5 755.08 148.5 746.027L148.5 680.459Z" stroke="#2F5597" stroke-width="1.33333" stroke-miterlimit="8" fill="#DEEBF7" fill-rule="evenodd"/><text font-family="Calibri,Calibri_MSFontService,sans-serif" font-weight="700" font-size="41" transform="translate(283.31 702)">read alignment to reference genome(s)<tspan font-weight="400" x="195.273" y="49">ngm and/or bwa</tspan></text><path d="M253.5 1747.83C253.5 1738.81 260.813 1731.5 269.833 1731.5L966.167 1731.5C975.188 1731.5 982.5 1738.81 982.5 1747.83L982.5 1813.17C982.5 1822.19 975.188 1829.5 966.167 1829.5L269.833 1829.5C260.813 1829.5 253.5 1822.19 253.5 1813.17Z" stroke="#2F5597" stroke-width="1.33333" stroke-miterlimit="8" fill="#DEEBF7" fill-rule="evenodd"/><text font-family="Calibri,Calibri_MSFontService,sans-serif" font-weight="700" font-size="41" transform="translate(463.461 1770)">InDel realignment<tspan font-weight="400" x="105.913" y="49">abra</tspan><tspan font-weight="400" x="180.733" y="49">2</tspan></text><path d="M254.5 1909.83C254.5 1900.81 261.813 1893.5 270.833 1893.5L966.167 1893.5C975.188 1893.5 982.5 1900.81 982.5 1909.83L982.5 1975.17C982.5 1984.19 975.188 1991.5 966.167 1991.5L270.833 1991.5C261.813 1991.5 254.5 1984.19 254.5 1975.17Z" stroke="#2F5597" stroke-width="1.33333" stroke-miterlimit="8" fill="#DEEBF7" fill-rule="evenodd"/><text font-family="Calibri,Calibri_MSFontService,sans-serif" font-weight="700" font-size="41" transform="translate(498.243 1932)">variant calling<tspan font-weight="400" x="-97.1067" y="49">freebayes and/or mpileup</tspan></text><path d="M0 0 1205.5 0 1238 32.5007 1205.5 65 0 65 32.5002 32.5007Z" stroke="#000000" stroke-width="2" stroke-miterlimit="8" fill="#E7E6E6" fill-rule="evenodd" transform="matrix(-4.37114e-08 1 1 4.37114e-08 43.0001 727)"/><text font-family="Calibri,Calibri_MSFontService,sans-serif" font-weight="400" font-size="64" transform="matrix(-1.83697e-16 -1 1 -1.83697e-16 97.2074 1404)">bam</text><path d="M252.5 2071.83C252.5 2062.81 259.813 2055.5 268.833 2055.5L965.167 2055.5C974.188 2055.5 981.5 2062.81 981.5 2071.83L981.5 2137.17C981.5 2146.19 974.188 2153.5 965.167 2153.5L268.833 2153.5C259.813 2153.5 252.5 2146.19 252.5 2137.17Z" stroke="#2F5597" stroke-width="1.33333" stroke-miterlimit="8" fill="#DEEBF7" fill-rule="evenodd"/><text font-family="Calibri,Calibri_MSFontService,sans-serif" font-weight="700" font-size="41" transform="translate(575.252 2094)">filter<tspan font-weight="400" x="-195.207" y="49">default/strict, user</tspan><tspan font-weight="400" x="115.54" y="49">-</tspan><tspan font-weight="400" x="128.207" y="49">specified</tspan></text><path d="M254.5 2228C254.5 2218.89 261.887 2211.5 271 2211.5L966 2211.5C975.113 2211.5 982.5 2218.89 982.5 2228L982.5 2294C982.5 2303.11 975.113 2310.5 966 2310.5L271 2310.5C261.887 2310.5 254.5 2303.11 254.5 2294Z" stroke="#2F5597" stroke-width="1.33333" stroke-miterlimit="8" fill="#DEEBF7" fill-rule="evenodd"/><text font-family="Calibri,Calibri_MSFontService,sans-serif" font-weight="700" font-size="41" transform="translate(458.35 2250)">variant annotation<tspan font-weight="400" x="107.407" y="49">snpeff</tspan></text><path d="M1346.5 205.5 1497.5 205.5 1497.5 284.091C1422 284.091 1422 314.035 1346.5 297.021Z" stroke="#C55A11" stroke-width="1.33333" stroke-miterlimit="8" fill="#FBE5D6" fill-rule="evenodd"/><text font-family="Calibri,Calibri_MSFontService,sans-serif" font-weight="700" font-size="41" transform="translate(1380.96 258)">set <tspan x="60.72" y="0">2</tspan><tspan font-size="72" x="143.974" y="-5">. . .</tspan></text><path d="M1644.5 205.5 1795.5 205.5 1795.5 284.091C1720 284.091 1720 314.035 1644.5 297.021Z" stroke="#C55A11" stroke-width="1.33333" stroke-miterlimit="8" fill="#FBE5D6" fill-rule="evenodd"/><text font-family="Calibri,Calibri_MSFontService,sans-serif" font-weight="700" font-size="41" transform="translate(1675.36 258)">set N</text><path d="M620 1828.96 620.542 1874.64 614.542 1874.72 614 1829.04ZM617.542 1874.68 632.399 1862.5 617.756 1892.68 602.401 1862.86Z"/><path d="M976.037 41 976.037 79.7669 617 79.7669 620 76.7669 620 94.5334 614 94.5334 614 73.7669 973.037 73.7669 970.037 76.7669 970.037 41ZM617 94.5334 632 82.5334 617 112.533 602 82.5334Z"/><path d="M0-3 38.6141-3 38.6141 449.031 35.6141 446.031 145.615 446.031 145.615 452.031 32.6141 452.031 32.6141 0 35.6141 3 0 3ZM145.615 449.031 133.615 434.031 163.615 449.031 133.615 464.031Z" transform="matrix(-4.37114e-08 1 1 4.37114e-08 973 41.0001)"/><path d="M0-3 38.7501-3 38.7501 746.512 35.7501 743.512 145.533 743.512 145.533 749.512 32.7501 749.512 32.7501 0 35.7501 3 0 3ZM145.533 746.512 133.533 731.512 163.533 746.512 133.533 761.512Z" transform="matrix(-4.37114e-08 1 1 4.37114e-08 973 41.0001)"/><path d="M2.99922-0.0685166 4.04271 45.6089-1.95572 45.746-2.99922 0.0685166ZM1.04349 45.6774 15.7655 33.338 1.45459 63.6728-14.2267 34.0232Z" transform="matrix(-1 -8.74228e-08 -8.74228e-08 1 618.455 1991)"/><path d="M619.999 2152.92 621.003 2193 615.005 2193.15 614.001 2153.08ZM618.004 2193.08 632.699 2180.71 618.455 2211.07 602.708 2181.46Z"/><path d="M166.5 164.5 390.5 164.5 390.5 335.314C278.5 335.314 278.5 400.398 166.5 363.418Z" stroke="#C55A11" stroke-width="1.33333" stroke-miterlimit="8" fill="#FBE5D6" fill-rule="evenodd"/><text font-family="Calibri,Calibri_MSFontService,sans-serif" font-weight="400" font-size="41" transform="translate(207.284 200)">sample1<tspan font-size="59" x="525.874" y="56">. . .</tspan></text><path d="M173.5 348.122C264.328 366.267 264.328 329.978 355.146 329.978L355.146 235.66 173.5 235.66ZM188.465 235.66 188.465 223.432 368.87 223.432 368.87 318.342C362.013 318.342 355.146 318.999 355.146 318.999L355.146 235.66ZM202.532 223.432 202.532 211.5 384.5 211.5 384.5 306.114C376.685 306.114 368.87 306.607 368.87 306.607L368.87 223.432Z" fill="#FBE5D6" fill-rule="evenodd"/><path d="M173.5 235.66 355.146 235.66 355.146 329.978C264.328 329.978 264.328 366.267 173.5 348.122ZM188.465 235.66 188.465 223.432 368.87 223.432 368.87 318.342C362.013 318.342 355.146 318.999 355.146 318.999M202.532 223.432 202.532 211.5 384.5 211.5 384.5 306.114C376.685 306.114 368.87 306.607 368.87 306.607" stroke="#C55A11" stroke-width="1.33333" stroke-miterlimit="8" fill="none" fill-rule="evenodd"/><text font-family="Calibri,Calibri_MSFontService,sans-serif" font-weight="400" font-size="41" transform="translate(183.715 306)">run#_lib#</text><path d="M473.5 164.5 697.5 164.5 697.5 335.314C585.5 335.314 585.5 400.398 473.5 363.418Z" stroke="#C55A11" stroke-width="1.33333" stroke-miterlimit="8" fill="#FBE5D6" fill-rule="evenodd"/><text font-family="Calibri,Calibri_MSFontService,sans-serif" font-weight="400" font-size="41" transform="translate(513.945 200)">sample<tspan x="120.667" y="0">2</tspan></text><path d="M481.5 348.122C572.328 366.267 572.328 329.978 663.146 329.978L663.146 235.66 481.5 235.66ZM496.465 235.66 496.465 223.432 676.87 223.432 676.87 318.342C670.013 318.342 663.146 318.999 663.146 318.999L663.146 235.66ZM510.532 223.432 510.532 211.5 692.5 211.5 692.5 306.114C684.685 306.114 676.87 306.607 676.87 306.607L676.87 223.432Z" fill="#FBE5D6" fill-rule="evenodd"/><path d="M481.5 235.66 663.146 235.66 663.146 329.978C572.328 329.978 572.328 366.267 481.5 348.122ZM496.465 235.66 496.465 223.432 676.87 223.432 676.87 318.342C670.013 318.342 663.146 318.999 663.146 318.999M510.532 223.432 510.532 211.5 692.5 211.5 692.5 306.114C684.685 306.114 676.87 306.607 676.87 306.607" stroke="#C55A11" stroke-width="1.33333" stroke-miterlimit="8" fill="none" fill-rule="evenodd"/><text font-family="Calibri,Calibri_MSFontService,sans-serif" font-weight="400" font-size="41" transform="translate(491.632 306)">run#_lib#</text><path d="M841.5 164.5 1065.5 164.5 1065.5 335.314C953.5 335.314 953.5 400.398 841.5 363.418Z" stroke="#C55A11" stroke-width="1.33333" stroke-miterlimit="8" fill="#FBE5D6" fill-rule="evenodd"/><text font-family="Calibri,Calibri_MSFontService,sans-serif" font-weight="400" font-size="41" transform="translate(879.184 200)">sampleN</text><path d="M849.5 348.122C940.328 366.267 940.328 329.978 1031.15 329.978L1031.15 235.66 849.5 235.66ZM864.465 235.66 864.465 223.432 1044.87 223.432 1044.87 318.342C1038.01 318.342 1031.15 318.999 1031.15 318.999L1031.15 235.66ZM878.532 223.432 878.532 211.5 1060.5 211.5 1060.5 306.114C1052.69 306.114 1044.87 306.607 1044.87 306.607L1044.87 223.432Z" fill="#FBE5D6" fill-rule="evenodd"/><path d="M849.5 235.66 1031.15 235.66 1031.15 329.978C940.328 329.978 940.328 366.267 849.5 348.122ZM864.465 235.66 864.465 223.432 1044.87 223.432 1044.87 318.342C1038.01 318.342 1031.15 318.999 1031.15 318.999M878.532 223.432 878.532 211.5 1060.5 211.5 1060.5 306.114C1052.69 306.114 1044.87 306.607 1044.87 306.607" stroke="#C55A11" stroke-width="1.33333" stroke-miterlimit="8" fill="none" fill-rule="evenodd"/><text font-family="Calibri,Calibri_MSFontService,sans-serif" font-weight="400" font-size="41" transform="translate(859.939 306)">run#_lib#</text><path d="M1356.5 514C1356.5 504.888 1363.89 497.5 1373 497.5L1473 497.5C1482.11 497.5 1489.5 504.888 1489.5 514L1489.5 580C1489.5 589.113 1482.11 596.5 1473 596.5L1373 596.5C1363.89 596.5 1356.5 589.113 1356.5 580Z" stroke="#2E75B6" stroke-width="1.33333" stroke-miterlimit="8" fill="#DEEBF7" fill-rule="evenodd"/><path d="M1358.5 679.834C1358.5 670.813 1365.81 663.5 1374.83 663.5L1474.17 663.5C1483.19 663.5 1490.5 670.813 1490.5 679.834L1490.5 745.166C1490.5 754.187 1483.19 761.5 1474.17 761.5L1374.83 761.5C1365.81 761.5 1358.5 754.187 1358.5 745.166Z" stroke="#2E75B6" stroke-width="1.33333" stroke-miterlimit="8" fill="#DEEBF7" fill-rule="evenodd"/><path d="M1358.5 827.834C1358.5 818.813 1365.81 811.5 1374.83 811.5L1474.17 811.5C1483.19 811.5 1490.5 818.813 1490.5 827.834L1490.5 893.166C1490.5 902.187 1483.19 909.5 1474.17 909.5L1374.83 909.5C1365.81 909.5 1358.5 902.187 1358.5 893.166Z" stroke="#2E75B6" stroke-width="1.33333" stroke-miterlimit="8" fill="#DEEBF7" fill-rule="evenodd"/><path d="M1652.5 514C1652.5 504.888 1659.89 497.5 1669 497.5L1769 497.5C1778.11 497.5 1785.5 504.888 1785.5 514L1785.5 580C1785.5 589.113 1778.11 596.5 1769 596.5L1669 596.5C1659.89 596.5 1652.5 589.113 1652.5 580Z" stroke="#2E75B6" stroke-width="1.33333" stroke-miterlimit="8" fill="#DEEBF7" fill-rule="evenodd"/><path d="M1654.5 679.834C1654.5 670.813 1661.81 663.5 1670.83 663.5L1770.17 663.5C1779.19 663.5 1786.5 670.813 1786.5 679.834L1786.5 745.166C1786.5 754.187 1779.19 761.5 1770.17 761.5L1670.83 761.5C1661.81 761.5 1654.5 754.187 1654.5 745.166Z" stroke="#2E75B6" stroke-width="1.33333" stroke-miterlimit="8" fill="#DEEBF7" fill-rule="evenodd"/><path d="M1654.5 827.834C1654.5 818.813 1661.81 811.5 1670.83 811.5L1770.17 811.5C1779.19 811.5 1786.5 818.813 1786.5 827.834L1786.5 893.166C1786.5 902.187 1779.19 909.5 1770.17 909.5L1670.83 909.5C1661.81 909.5 1654.5 902.187 1654.5 893.166Z" stroke="#2E75B6" stroke-width="1.33333" stroke-miterlimit="8" fill="#DEEBF7" fill-rule="evenodd"/><path d="M2.99999-0.00816352 3.31489 115.715-2.68509 115.731-2.99999 0.00816352ZM0.314903 115.723 15.2822 103.682 0.363885 133.723-14.7177 103.764Z" transform="matrix(-1 -8.74228e-08 -8.74228e-08 1 278.364 363)"/><path d="M956 362.996 956.16 479.434 950.16 479.442 950 363.004ZM953.16 479.438 968.143 467.417 953.185 497.438 938.143 467.458Z"/><path d="M282 592.947 282.938 645.663 276.939 645.769 276 593.053ZM279.939 645.716 294.723 633.451 280.259 663.713 264.728 633.985Z"/><path d="M2.99998-0.0120445 3.13264 33.032-2.86731 33.0561-2.99998 0.0120445ZM0.132667 33.044 15.0844 20.9839 0.204934 51.0439-14.9154 21.1043Z" transform="matrix(-1 -8.74228e-08 -8.74228e-08 1 280.205 761)"/><path d="M956.998 594.903 958.648 645.656 952.652 645.851 951.002 595.097ZM955.65 645.753 970.252 633.272 956.235 663.744 940.268 634.247Z"/><path d="M3-0.00499531 3.05412 32.4991-2.94587 32.5091-3 0.00499531ZM0.0541227 32.5041 15.0341 20.4791 0.0840945 50.504-14.9658 20.5291Z" transform="matrix(-1 -8.74228e-08 -8.74228e-08 1 957.084 762)"/><path d="M1425 296.992 1425.51 479.613 1419.51 479.63 1419 297.008ZM1422.51 479.621 1437.48 467.579 1422.57 497.621 1407.48 467.663Z"/><path d="M1425 595.935 1426.07 645.435 1420.07 645.564 1419 596.065ZM1423.07 645.499 1437.8 633.179 1423.45 663.495 1407.81 633.825Z"/><path d="M1427 761 1427 792.738 1421 792.738 1421 761ZM1424 792.738 1439 780.738 1424 810.738 1409 780.738Z"/><path d="M1722 595.935 1723.07 645.435 1717.07 645.564 1716 596.065ZM1720.07 645.499 1734.8 633.179 1720.45 663.495 1704.81 633.825Z"/><path d="M2.99998-0.0108704 3.662 182.691-2.33796 182.713-2.99998 0.0108704ZM0.662022 182.702 15.6184 170.648 0.727244 200.702-14.3814 170.757Z" transform="matrix(-1 -8.74228e-08 -8.74228e-08 1 1719.73 297)"/><path d="M1723 761 1723 792.738 1717 792.738 1717 761ZM1720 792.738 1735 780.738 1720 810.738 1705 780.738Z"/><path d="M1723 909 1723 995.622 1717 995.622 1717 909ZM1720 995.622 1735 983.622 1720 1013.62 1705 983.622Z"/><path d="M2.99996-0.0162539 3.46768 86.3109-2.53223 86.3434-2.99996 0.0162539ZM0.467726 86.3272 15.4025 74.2461 0.565249 104.327-14.5971 74.4086Z" transform="matrix(-1 -8.74228e-08 -8.74228e-08 1 1423.57 909)"/><path d="M2.99999-0.00862789 3.13163 45.7653-2.86834 45.7826-2.99999 0.00862789ZM0.131645 45.7739 15.0971 33.7308 0.183412 63.7739-14.9028 33.8171Z" transform="matrix(-1 -8.74228e-08 -8.74228e-08 1 281.183 909)"/><path d="M961 910 961 955.328 955 955.328 955 910ZM958 955.328 973 943.328 958 973.328 943 943.328Z"/><path d="M0-3 57.4228-3 57.4228 334.57 54.4228 331.57 90.8457 331.57 90.8457 337.57 51.4228 337.57 51.4228 0 54.4228 3 0 3ZM90.8457 334.57 78.8457 319.57 108.846 334.57 78.8457 349.57Z" transform="matrix(-4.37114e-08 1 1 4.37114e-08 281 1153)"/><path d="M0-3 62.6596-3 62.6596 25.2146 59.6596 22.2146 96.5186 22.2146 96.5186 28.2146 56.6596 28.2146 56.6596 0 59.6596 3 0 3ZM96.5186 25.2146 84.5186 10.2146 114.519 25.2146 84.5186 40.2146Z" transform="matrix(-4.37114e-08 1 1 4.37114e-08 591 1147)"/><path d="M960.894 1147 960.894 1209.64 616 1209.64 619 1206.64 619 1243.48 613 1243.48 613 1203.64 957.894 1203.64 954.894 1206.64 954.894 1147ZM616 1243.48 631 1231.48 616 1261.48 601 1231.48Z"/><path d="M1356.5 1747.83C1356.5 1738.81 1363.81 1731.5 1372.83 1731.5L1473.17 1731.5C1482.19 1731.5 1489.5 1738.81 1489.5 1747.83L1489.5 1813.17C1489.5 1822.19 1482.19 1829.5 1473.17 1829.5L1372.83 1829.5C1363.81 1829.5 1356.5 1822.19 1356.5 1813.17Z" stroke="#2F5597" stroke-width="1.33333" stroke-miterlimit="8" fill="#DEEBF7" fill-rule="evenodd"/><path d="M1357.5 1909.83C1357.5 1900.81 1364.81 1893.5 1373.83 1893.5L1473.17 1893.5C1482.19 1893.5 1489.5 1900.81 1489.5 1909.83L1489.5 1975.17C1489.5 1984.19 1482.19 1991.5 1473.17 1991.5L1373.83 1991.5C1364.81 1991.5 1357.5 1984.19 1357.5 1975.17Z" stroke="#2F5597" stroke-width="1.33333" stroke-miterlimit="8" fill="#DEEBF7" fill-rule="evenodd"/><path d="M1356.5 2071.83C1356.5 2062.81 1363.81 2055.5 1372.83 2055.5L1472.17 2055.5C1481.19 2055.5 1488.5 2062.81 1488.5 2071.83L1488.5 2137.17C1488.5 2146.19 1481.19 2153.5 1472.17 2153.5L1372.83 2153.5C1363.81 2153.5 1356.5 2146.19 1356.5 2137.17Z" stroke="#2F5597" stroke-width="1.33333" stroke-miterlimit="8" fill="#DEEBF7" fill-rule="evenodd"/><path d="M1357.5 2228C1357.5 2218.89 1364.89 2211.5 1374 2211.5L1473 2211.5C1482.11 2211.5 1489.5 2218.89 1489.5 2228L1489.5 2294C1489.5 2303.11 1482.11 2310.5 1473 2310.5L1374 2310.5C1364.89 2310.5 1357.5 2303.11 1357.5 2294Z" stroke="#2F5597" stroke-width="1.33333" stroke-miterlimit="8" fill="#DEEBF7" fill-rule="evenodd"/><path d="M1654.5 1747.83C1654.5 1738.81 1661.81 1731.5 1670.83 1731.5L1770.17 1731.5C1779.19 1731.5 1786.5 1738.81 1786.5 1747.83L1786.5 1813.17C1786.5 1822.19 1779.19 1829.5 1770.17 1829.5L1670.83 1829.5C1661.81 1829.5 1654.5 1822.19 1654.5 1813.17Z" stroke="#2F5597" stroke-width="1.33333" stroke-miterlimit="8" fill="#DEEBF7" fill-rule="evenodd"/><path d="M1655.5 1909.83C1655.5 1900.81 1662.81 1893.5 1671.83 1893.5L1771.17 1893.5C1780.19 1893.5 1787.5 1900.81 1787.5 1909.83L1787.5 1975.17C1787.5 1984.19 1780.19 1991.5 1771.17 1991.5L1671.83 1991.5C1662.81 1991.5 1655.5 1984.19 1655.5 1975.17Z" stroke="#2F5597" stroke-width="1.33333" stroke-miterlimit="8" fill="#DEEBF7" fill-rule="evenodd"/><path d="M1653.5 2071.83C1653.5 2062.81 1660.81 2055.5 1669.83 2055.5L1769.17 2055.5C1778.19 2055.5 1785.5 2062.81 1785.5 2071.83L1785.5 2137.17C1785.5 2146.19 1778.19 2153.5 1769.17 2153.5L1669.83 2153.5C1660.81 2153.5 1653.5 2146.19 1653.5 2137.17Z" stroke="#2F5597" stroke-width="1.33333" stroke-miterlimit="8" fill="#DEEBF7" fill-rule="evenodd"/><path d="M1655.5 2228C1655.5 2218.89 1662.89 2211.5 1672 2211.5L1771 2211.5C1780.11 2211.5 1787.5 2218.89 1787.5 2228L1787.5 2294C1787.5 2303.11 1780.11 2310.5 1771 2310.5L1672 2310.5C1662.89 2310.5 1655.5 2303.11 1655.5 2294Z" stroke="#2F5597" stroke-width="1.33333" stroke-miterlimit="8" fill="#DEEBF7" fill-rule="evenodd"/><path d="M1426 1111.96 1428.06 1270.04 1422.06 1270.11 1420 1112.04ZM1425.06 1270.08 1439.9 1257.88 1425.29 1288.07 1409.9 1258.27Z"/><path d="M1426 1828.96 1426.54 1874.64 1420.54 1874.72 1420 1829.04ZM1423.54 1874.68 1438.4 1862.5 1423.76 1892.68 1408.4 1862.86Z"/><path d="M2.99922-0.0685166 4.04271 45.6089-1.95572 45.746-2.99922 0.0685166ZM1.04349 45.6774 15.7655 33.338 1.45459 63.6728-14.2267 34.0232Z" transform="matrix(-1 -8.74228e-08 -8.74228e-08 1 1423.45 1991)"/><path d="M1425 2152.92 1426 2193 1420 2193.15 1419 2153.08ZM1423 2193.08 1437.7 2180.71 1423.45 2211.07 1407.71 2181.46Z"/><path d="M2.9999-0.0245392 4.30715 159.786-1.69265 159.835-2.9999 0.0245392ZM1.30725 159.811 16.2086 147.689 1.45449 177.81-13.7904 147.934Z" transform="matrix(-1 -8.74228e-08 -8.74228e-08 1 1720.45 1112)"/><path d="M2.99922-0.0685166 4.04271 45.6089-1.95572 45.746-2.99922 0.0685166ZM1.04349 45.6774 15.7655 33.338 1.45459 63.6728-14.2267 34.0232Z" transform="matrix(-1 -8.74228e-08 -8.74228e-08 1 1720.45 1991)"/><path d="M1722 2152.92 1723 2193 1717 2193.15 1716 2153.08ZM1720 2193.08 1734.7 2180.71 1720.45 2211.07 1704.71 2181.46Z"/><path d="M440.5 974.5 742.5 974.5 591.5 1147.5Z" stroke="#BF9000" stroke-width="1.33333" stroke-miterlimit="8" fill="#FFF2CC" fill-rule="evenodd"/><text font-family="Calibri,Calibri_MSFontService,sans-serif" font-weight="400" font-size="40" transform="translate(522.224 1013)">sample<tspan x="116.833" y="0">2 </tspan><tspan font-weight="700" x="16.0333" y="48">merge</tspan><tspan font-weight="700" x="34.3333" y="96">files</tspan></text><path d="M0-3 57.5819-3 57.5819 355.502 54.5819 352.502 91.1639 352.502 91.1639 358.502 51.5819 358.502 51.5819 0 54.5819 3 0 3ZM91.1639 355.502 79.1639 340.502 109.164 355.502 79.1639 370.502Z" transform="matrix(-4.37114e-08 1 1 4.37114e-08 618 2310)"/><path d="M1426.73 2310 1426.73 2367.58 974 2367.58 977 2364.58 977 2401.16 971 2401.16 971 2361.58 1423.73 2361.58 1420.73 2364.58 1420.73 2310ZM974 2401.16 989 2389.16 974 2419.16 959 2389.16Z"/><path d="M1724.24 2310 1724.24 2367.58 974 2367.58 977 2364.58 977 2401.16 971 2401.16 971 2361.58 1721.24 2361.58 1718.24 2364.58 1718.24 2310ZM974 2401.16 989 2389.16 974 2419.16 959 2389.16Z"/><path d="M1723 1828.96 1723.54 1874.64 1717.54 1874.72 1717 1829.04ZM1720.54 1874.68 1735.4 1862.5 1720.76 1892.68 1705.4 1862.86Z"/><text font-family="Calibri,Calibri_MSFontService,sans-serif" font-weight="700" font-size="53" transform="translate(734.868 1062)">. . .</text><path d="M1357.5 1014.5 1489.5 1014.5 1423.5 1112.5Z" stroke="#BF9000" stroke-width="1.33333" stroke-miterlimit="8" fill="#FFF2CC" fill-rule="evenodd"/><path d="M1654.5 1014.5 1786.5 1014.5 1720.5 1112.5Z" stroke="#BF9000" stroke-width="1.33333" stroke-miterlimit="8" fill="#FFF2CC" fill-rule="evenodd"/><path d="M130.5 973.5 433.5 973.5 282 1153.5Z" stroke="#BF9000" stroke-width="1.33333" stroke-miterlimit="8" fill="#FFF2CC" fill-rule="evenodd"/><path d="M465.5 1262.5 767.5 1262.5 616.5 1441.5Z" stroke="#BF9000" stroke-width="1.33333" stroke-miterlimit="8" fill="#FFF2CC" fill-rule="evenodd"/><path d="M807.5 974.5 1109.5 974.5 958.5 1147.5Z" stroke="#BF9000" stroke-width="1.33333" stroke-miterlimit="8" fill="#FFF2CC" fill-rule="evenodd"/><text font-family="Calibri,Calibri_MSFontService,sans-serif" font-weight="400" font-size="40" transform="translate(886.672 1015)">sampleN <tspan font-weight="700" x="18.78" y="48">merge </tspan><tspan font-weight="700" x="37.08" y="96">files</tspan></text><path d="M1359.5 1288.5 1492.5 1288.5 1426 1386.5Z" stroke="#BF9000" stroke-width="1.33333" stroke-miterlimit="8" fill="#FFF2CC" fill-rule="evenodd"/><path d="M1652.5 1290.5 1785.5 1290.5 1719 1388.5Z" stroke="#BF9000" stroke-width="1.33333" stroke-miterlimit="8" fill="#FFF2CC" fill-rule="evenodd"/><path d="M0 0 503.5 0 536 32.5 503.5 65 0 65 32.5 32.5Z" stroke="#000000" stroke-width="2" stroke-miterlimit="8" fill="#E7E6E6" fill-rule="evenodd" transform="matrix(-4.37114e-08 1 1 4.37114e-08 44.0001 1958)"/><text font-family="Calibri,Calibri_MSFontService,sans-serif" font-weight="400" font-size="64" transform="matrix(-1.83697e-16 -1 1 -1.83697e-16 97.9619 2263)">vcf</text><path d="M691.352-52.5001 1255.65-52.5001C1329.57-52.5001 1389.5-31.4574 1389.5-5.5 1389.5 20.4574 1329.57 41.5001 1255.65 41.5001L691.352 41.5001C617.428 41.5001 557.5 20.4574 557.5-5.5 557.5-31.4574 617.428-52.5001 691.352-52.5001Z" stroke="#548235" stroke-width="1.33333" stroke-miterlimit="8" fill="#E2F0D9" fill-rule="evenodd"/><text font-family="Calibri,Calibri_MSFontService,sans-serif" font-weight="700" font-size="41" transform="translate(918.949 -16)">INPUT <tspan font-weight="400" x="-221.88" y="49">raw reads, fq</tspan><tspan font-weight="400" x="-5.12" y="49">1</tspan><tspan font-weight="400" x="15.88" y="49">/fq</tspan><tspan font-weight="400" x="65.1467" y="49">2 </tspan><tspan font-weight="400" x="95.48" y="49">or interleaved</tspan></text><path d="M692.191 2419.5 1255.81 2419.5C1329.64 2419.5 1389.5 2440.54 1389.5 2466.5 1389.5 2492.46 1329.64 2513.5 1255.81 2513.5L692.191 2513.5C618.356 2513.5 558.5 2492.46 558.5 2466.5 558.5 2440.54 618.356 2419.5 692.191 2419.5Z" stroke="#548235" stroke-width="1.33333" stroke-miterlimit="8" fill="#E2F0D9" fill-rule="evenodd"/><text font-family="Calibri,Calibri_MSFontService,sans-serif" font-weight="400" font-size="41" transform="translate(713.235 2455)">resulting vcf and statistical files<tspan font-weight="700" x="187.807" y="49">OUTPUT</tspan></text><path d="M0 0 707.5 0 740 32.5 707.5 65 0 65 32.4996 32.5Z" stroke="#000000" stroke-width="2" stroke-miterlimit="8" fill="#E7E6E6" fill-rule="evenodd" transform="matrix(-4.37114e-08 1 1 4.37114e-08 43.0001 -5.00005)"/><text font-family="Calibri,Calibri_MSFontService,sans-serif" font-weight="400" font-size="64" transform="matrix(-1.83697e-16 -1 1 -1.83697e-16 97.206 429)">fastq</text><path d="M1116.5 1744.83C1116.5 1735.81 1123.81 1728.5 1132.83 1728.5L1232.17 1728.5C1241.19 1728.5 1248.5 1735.81 1248.5 1744.83L1248.5 1810.17C1248.5 1819.19 1241.19 1826.5 1232.17 1826.5L1132.83 1826.5C1123.81 1826.5 1116.5 1819.19 1116.5 1810.17Z" stroke="#2F5597" stroke-width="1.33333" stroke-miterlimit="8" stroke-dasharray="1.33333 1.33333" fill="#DEEBF7" fill-rule="evenodd"/><path d="M1114.5 1909.83C1114.5 1900.81 1121.81 1893.5 1130.83 1893.5L1230.17 1893.5C1239.19 1893.5 1246.5 1900.81 1246.5 1909.83L1246.5 1975.17C1246.5 1984.19 1239.19 1991.5 1230.17 1991.5L1130.83 1991.5C1121.81 1991.5 1114.5 1984.19 1114.5 1975.17Z" stroke="#2F5597" stroke-width="1.33333" stroke-miterlimit="8" stroke-dasharray="1.33333 1.33333" fill="#DEEBF7" fill-rule="evenodd"/><path d="M1112.5 2071.83C1112.5 2062.81 1119.81 2055.5 1128.83 2055.5L1228.17 2055.5C1237.19 2055.5 1244.5 2062.81 1244.5 2071.83L1244.5 2137.17C1244.5 2146.19 1237.19 2153.5 1228.17 2153.5L1128.83 2153.5C1119.81 2153.5 1112.5 2146.19 1112.5 2137.17Z" stroke="#2F5597" stroke-width="1.33333" stroke-miterlimit="8" stroke-dasharray="1.33333 1.33333" fill="#DEEBF7" fill-rule="evenodd"/><path d="M1114.5 2228C1114.5 2218.89 1121.89 2211.5 1131 2211.5L1230 2211.5C1239.11 2211.5 1246.5 2218.89 1246.5 2228L1246.5 2294C1246.5 2303.11 1239.11 2310.5 1230 2310.5L1131 2310.5C1121.89 2310.5 1114.5 2303.11 1114.5 2294Z" stroke="#2F5597" stroke-width="1.33333" stroke-miterlimit="8" stroke-dasharray="1.33333 1.33333" fill="#DEEBF7" fill-rule="evenodd"/><path d="M1045.5 1483.5 1312.5 1483.5 1179 1661.5Z" stroke="#BF9000" stroke-width="1.33333" stroke-miterlimit="8" stroke-dasharray="1.33333 1.33333" fill="#FFF2CC" fill-rule="evenodd"/><text font-family="Calibri,Calibri_MSFontService,sans-serif" font-weight="400" font-size="40" transform="translate(1083.78 1527)">all_samples<tspan font-weight="700" x="42.4467" y="48">merge</tspan><tspan font-weight="700" font-size="53" x="455.04" y="-192">. . .</tspan></text><path d="M1182 1660.87 1182.26 1666.86 1176.27 1667.13 1176 1661.13ZM1182.52 1672.86 1182.78 1678.85 1176.79 1679.11 1176.53 1673.12ZM1183.05 1684.85 1183.31 1690.84 1177.31 1691.1 1177.05 1685.11ZM1183.57 1696.83 1183.83 1702.83 1177.84 1703.09 1177.58 1697.1ZM1184.09 1708.82 1184.14 1709.9 1178.15 1710.16 1178.1 1709.09ZM1181.14 1710.03 1195.61 1697.39 1181.93 1728.01 1165.63 1698.7Z" fill="#7F7F7F"/><path d="M2.99868-0.089105 3.17689 5.90825-2.82047 6.08646-2.99868 0.089105ZM3.3551 11.9056 3.53331 17.903-2.46405 18.0812-2.64226 12.0838ZM3.71152 23.9003 3.88973 29.8977-2.10763 30.0759-2.28584 24.0785ZM4.06794 35.895 4.24615 41.8924-1.75121 42.0706-1.92942 36.0732ZM4.42436 47.8897 4.45533 48.9322-1.54202 49.1104-1.573 48.0679ZM1.45666 49.0213 16.0936 36.581 1.99129 67.0133-13.8931 37.4721Z" fill="#7F7F7F" transform="matrix(-1 -8.74228e-08 -8.74228e-08 1 1181.99 1826)"/><path d="M2.99922-0.0685166 3.13625 5.92992-2.86218 6.06695-2.99922 0.0685166ZM3.27328 11.9284 3.41032 17.9268-2.58812 18.0638-2.72515 12.0654ZM3.54735 23.9252 3.68438 29.9237-2.31405 30.0607-2.45108 24.0623ZM3.82142 35.9221 3.95845 41.9205-2.03999 42.0576-2.17702 36.0591ZM1.04349 45.6774 15.7655 33.338 1.45459 63.6728-14.2267 34.0232Z" fill="#7F7F7F" transform="matrix(-1 -8.74228e-08 -8.74228e-08 1 1179.45 1991)"/><path d="M1181 2152.92 1181.15 2158.92 1175.15 2159.07 1175 2153.08ZM1181.3 2164.92 1181.45 2170.92 1175.45 2171.07 1175.3 2165.07ZM1181.6 2176.92 1181.75 2182.92 1175.75 2183.07 1175.6 2177.07ZM1181.9 2188.91 1182 2193 1176 2193.15 1175.9 2189.06ZM1179 2193.08 1193.7 2180.71 1179.45 2211.07 1163.71 2181.46Z" fill="#7F7F7F"/><path d="M619 1440.99 620.184 1713.07 614.184 1713.1 613 1441.01ZM617.184 1713.09 632.132 1701.02 617.262 1731.09 602.132 1701.15Z"/><path d="M1722 1387.99 1723.38 1712.71 1717.38 1712.73 1716 1388.01ZM1720.38 1712.72 1735.33 1700.65 1720.45 1730.72 1705.33 1700.78Z"/><path d="M1183.18 2310 1183.18 2316 1177.18 2316 1177.18 2310ZM1183.18 2322 1183.18 2328 1177.18 2328 1177.18 2322ZM1183.18 2334 1183.18 2340 1177.18 2340 1177.18 2334ZM1183.18 2346 1183.18 2352 1177.18 2352 1177.18 2346ZM1183.18 2358 1183.18 2364 1177.18 2364 1177.18 2358ZM1174.76 2367.58 1168.76 2367.58 1168.76 2361.58 1174.76 2361.58ZM1162.76 2367.58 1156.76 2367.58 1156.76 2361.58 1162.76 2361.58ZM1150.76 2367.58 1144.76 2367.58 1144.76 2361.58 1150.76 2361.58ZM1138.76 2367.58 1132.76 2367.58 1132.76 2361.58 1138.76 2361.58ZM1126.76 2367.58 1120.76 2367.58 1120.76 2361.58 1126.76 2361.58ZM1114.76 2367.58 1108.76 2367.58 1108.76 2361.58 1114.76 2361.58ZM1102.76 2367.58 1096.76 2367.58 1096.76 2361.58 1102.76 2361.58ZM1090.76 2367.58 1084.76 2367.58 1084.76 2361.58 1090.76 2361.58ZM1078.76 2367.58 1072.76 2367.58 1072.76 2361.58 1078.76 2361.58ZM1066.76 2367.58 1060.76 2367.58 1060.76 2361.58 1066.76 2361.58ZM1054.76 2367.58 1048.76 2367.58 1048.76 2361.58 1054.76 2361.58ZM1042.76 2367.58 1036.76 2367.58 1036.76 2361.58 1042.76 2361.58ZM1030.76 2367.58 1024.76 2367.58 1024.76 2361.58 1030.76 2361.58ZM1018.76 2367.58 1012.76 2367.58 1012.76 2361.58 1018.76 2361.58ZM1006.76 2367.58 1000.76 2367.58 1000.76 2361.58 1006.76 2361.58ZM994.758 2367.58 988.758 2367.58 988.758 2361.58 994.758 2361.58ZM982.758 2367.58 976.758 2367.58 976.758 2361.58 982.758 2361.58ZM977 2367.82 977 2373.82 971 2373.82 971 2367.82ZM977 2379.82 977 2385.82 971 2385.82 971 2379.82ZM977 2391.82 977 2397.82 971 2397.82 971 2391.82ZM977 2403.82 977 2404.16 971 2404.16 971 2403.82ZM983 2401.16 974 2419.16 965 2401.16Z" fill="#7F7F7F"/><path d="M2.99988-0.0265407 5.89072 326.723-0.109047 326.776-2.99988 0.0265407ZM2.89083 326.75 17.7841 314.617 3.05008 344.749-12.2147 314.883Z" transform="matrix(-1 -8.74228e-08 -8.74228e-08 1 1426.05 1386)"/><text font-family="Calibri,Calibri_MSFontService,sans-serif" font-weight="400" font-size="41" transform="translate(1096.55 1434)">[Optional]</text><path d="M616.234 1438.01 622.216 1438.48 621.747 1444.46 615.766 1443.99ZM628.198 1438.95 634.179 1439.42 633.711 1445.4 627.729 1444.93ZM640.161 1439.88 646.143 1440.35 645.674 1446.33 639.692 1445.87ZM652.124 1440.82 658.106 1441.29 657.637 1447.27 651.656 1446.8ZM664.088 1441.76 670.069 1442.23 669.601 1448.21 663.619 1447.74ZM676.051 1442.7 682.033 1443.17 681.564 1449.15 675.582 1448.68ZM688.014 1443.63 693.996 1444.1 693.527 1450.08 687.546 1449.62ZM699.978 1444.57 705.959 1445.04 705.491 1451.02 699.509 1450.55ZM711.941 1445.51 717.923 1445.98 717.454 1451.96 711.472 1451.49ZM723.904 1446.45 729.886 1446.92 729.417 1452.9 723.435 1452.43ZM735.868 1447.38 741.849 1447.85 741.38 1453.83 735.399 1453.37ZM747.831 1448.32 753.813 1448.79 753.344 1454.77 747.362 1454.3ZM759.794 1449.26 765.776 1449.73 765.307 1455.71 759.326 1455.24ZM771.758 1450.2 777.739 1450.67 777.271 1456.65 771.289 1456.18ZM783.721 1451.13 789.703 1451.6 789.234 1457.58 783.252 1457.12ZM795.684 1452.07 801.666 1452.54 801.197 1458.52 795.215 1458.05ZM807.648 1453.01 813.629 1453.48 813.16 1459.46 807.179 1458.99ZM819.611 1453.95 825.593 1454.42 825.124 1460.4 819.142 1459.93ZM831.574 1454.88 837.556 1455.35 837.087 1461.33 831.105 1460.87ZM843.538 1455.82 849.519 1456.29 849.05 1462.27 843.069 1461.8ZM855.501 1456.76 861.483 1457.23 861.014 1463.21 855.032 1462.74ZM867.464 1457.7 873.446 1458.17 872.977 1464.15 866.995 1463.68ZM879.427 1458.63 885.409 1459.1 884.94 1465.08 878.959 1464.62ZM891.391 1459.57 897.372 1460.04 896.904 1466.02 890.922 1465.55ZM903.354 1460.51 909.336 1460.98 908.867 1466.96 902.885 1466.49ZM915.317 1461.45 921.299 1461.92 920.83 1467.9 914.849 1467.43ZM927.281 1462.38 933.262 1462.85 932.794 1468.83 926.812 1468.37ZM939.244 1463.32 945.226 1463.79 944.757 1469.77 938.775 1469.3ZM951.207 1464.26 957.189 1464.73 956.72 1470.71 950.739 1470.24ZM963.171 1465.2 969.152 1465.67 968.683 1471.65 962.702 1471.18ZM975.134 1466.13 981.116 1466.6 980.647 1472.58 974.665 1472.12ZM987.097 1467.07 993.079 1467.54 992.61 1473.52 986.628 1473.05ZM999.061 1468.01 1005.04 1468.48 1004.57 1474.46 998.592 1473.99ZM1011.02 1468.95 1017.01 1469.42 1016.54 1475.4 1010.56 1474.93ZM1022.99 1469.88 1028.97 1470.35 1028.5 1476.33 1022.52 1475.87ZM1034.95 1470.82 1040.93 1471.29 1040.46 1477.27 1034.48 1476.8ZM1046.91 1471.76 1052.9 1472.23 1052.43 1478.21 1046.45 1477.74ZM1058.88 1472.7 1064.86 1473.17 1064.39 1479.15 1058.41 1478.68ZM1070.84 1473.63 1076.82 1474.1 1076.35 1480.08 1070.37 1479.62ZM1082.8 1474.57 1088.79 1475.04 1088.32 1481.02 1082.34 1480.55ZM1094.77 1475.51 1100.75 1475.98 1100.28 1481.96 1094.3 1481.49ZM1106.73 1476.45 1112.71 1476.92 1112.24 1482.9 1106.26 1482.43ZM1118.69 1477.38 1124.68 1477.85 1124.21 1483.84 1118.23 1483.37ZM1130.66 1478.32 1136.64 1478.79 1136.17 1484.77 1130.19 1484.3ZM1142.62 1479.26 1148.6 1479.73 1148.13 1485.71 1142.15 1485.24ZM1154.58 1480.2 1160.57 1480.67 1160.1 1486.65 1154.12 1486.18ZM1161.52 1474.72 1178.76 1485.1 1160.11 1492.67Z" fill="#7F7F7F"/><path d="M1.11463-2.78525 6.68512-0.555979 4.45586 5.01451-1.11463 2.78525ZM12.2556 1.67329 17.8261 3.90255 15.5968 9.47305 10.0263 7.24378ZM23.3966 6.13182 28.9671 8.36109 26.7378 13.9316 21.1673 11.7023ZM34.5376 10.5904 40.1081 12.8196 37.8788 18.3901 32.3083 16.1608ZM45.6786 15.0489 51.2491 17.2782 49.0198 22.8486 43.4493 20.6194ZM56.8195 19.5074 62.39 21.7367 60.1608 27.3072 54.5903 25.0779ZM67.9605 23.966 73.531 26.1952 71.3018 31.7657 65.7313 29.5364ZM79.1015 28.4245 84.672 30.6538 82.4427 36.2242 76.8722 33.995ZM90.2425 32.883 95.813 35.1123 93.5837 40.6828 88.0132 38.4535ZM101.383 37.3416 106.954 39.5708 104.725 45.1413 99.1542 42.912ZM112.524 41.8001 118.095 44.0294 115.866 49.5998 110.295 47.3706ZM123.665 46.2586 129.236 48.4879 127.007 54.0584 121.436 51.8291ZM134.806 50.7172 140.377 52.9464 138.148 58.5169 132.577 56.2876ZM145.947 55.1757 151.518 57.405 149.289 62.9754 143.718 60.7462ZM157.088 59.6342 162.659 61.8635 160.43 67.434 154.859 65.2047ZM168.229 64.0928 173.8 66.322 171.571 71.8925 166 69.6632ZM179.37 68.5513 184.941 70.7805 182.712 76.351 177.141 74.1218ZM190.511 73.0098 196.082 75.2391 193.853 80.8096 188.282 78.5803ZM201.652 77.4684 207.223 79.6976 204.994 85.2681 199.423 83.0388ZM212.793 81.9269 218.364 84.1562 216.135 89.7266 210.564 87.4974ZM223.934 86.3854 229.505 88.6147 227.275 94.1852 221.705 91.9559ZM233.419 83.7187 246.787 98.7622 226.732 100.43Z" fill="#7F7F7F" transform="matrix(-1 -8.74228e-08 -8.74228e-08 1 1425.79 1386)"/><path d="M0.529169-2.95296 6.43509-1.89462 5.37675 4.0113-0.529169 2.95296ZM12.341-0.836283 18.2469 0.222056 17.1886 6.12798 11.2827 5.06964ZM24.1529 1.2804 30.0588 2.33873 29.0004 8.24466 23.0945 7.18632ZM35.9647 3.39707 41.8706 4.45541 40.8123 10.3613 34.9064 9.30299ZM47.7765 5.51375 53.6825 6.57209 52.6241 12.478 46.7182 11.4197ZM59.5884 7.63043 65.4943 8.68877 64.436 14.5947 58.5301 13.5364ZM71.4002 9.74711 77.3062 10.8054 76.2478 16.7114 70.3419 15.653ZM83.2121 11.8638 89.118 12.9221 88.0597 18.828 82.1538 17.7697ZM95.0239 13.9805 100.93 15.0388 99.8715 20.9447 93.9656 19.8864ZM106.836 16.0971 112.742 17.1555 111.683 23.0614 105.777 22.0031ZM118.648 18.2138 124.554 19.2722 123.495 25.1781 117.589 24.1197ZM130.459 20.3305 136.365 21.3888 135.307 27.2948 129.401 26.2364ZM142.271 22.4472 148.177 23.5055 147.119 29.4114 141.213 28.3531ZM154.083 24.5639 159.989 25.6222 158.931 31.5281 153.025 30.4698ZM165.895 26.6805 171.801 27.7389 170.743 33.6448 164.837 32.5865ZM177.707 28.7972 183.613 29.8555 182.554 35.7615 176.648 34.7031ZM189.519 30.9139 195.425 31.9722 194.366 37.8782 188.46 36.8198ZM201.33 33.0306 207.236 34.0889 206.178 39.9948 200.272 38.9365ZM213.142 35.1472 219.048 36.2056 217.99 42.1115 212.084 41.0532ZM224.954 37.2639 230.86 38.3223 229.802 44.2282 223.896 43.1698ZM236.766 39.3806 242.672 40.4389 241.614 46.3449 235.708 45.2865ZM248.578 41.4973 254.484 42.5556 253.426 48.4616 247.52 47.4032ZM260.39 43.614 266.296 44.6723 265.237 50.5782 259.331 49.5199ZM272.202 45.7306 278.108 46.789 277.049 52.6949 271.143 51.6366ZM284.013 47.8473 289.919 48.9057 288.861 54.8116 282.955 53.7533ZM295.825 49.964 301.731 51.0223 300.673 56.9283 294.767 55.8699ZM307.637 52.0807 313.543 53.139 312.485 59.0449 306.579 57.9866ZM319.449 54.1974 325.355 55.2557 324.297 61.1616 318.391 60.1033ZM331.261 56.314 337.167 57.3724 336.109 63.2783 330.203 62.22ZM343.073 58.4307 348.979 59.4891 347.92 65.395 342.014 64.3366ZM354.885 60.5474 360.791 61.6057 359.732 67.5117 353.826 66.4533ZM366.696 62.6641 372.602 63.7224 371.544 69.6283 365.638 68.57ZM378.508 64.7808 384.414 65.8391 383.356 71.745 377.45 70.6867ZM390.32 66.8974 396.226 67.9558 395.168 73.8617 389.262 72.8034ZM402.132 69.0141 408.038 70.0725 406.98 75.9784 401.074 74.92ZM413.944 71.1308 419.85 72.1891 418.791 78.0951 412.885 77.0367ZM425.756 73.2475 431.662 74.3058 430.603 80.2117 424.697 79.1534ZM437.567 75.3642 443.473 76.4225 442.415 82.3284 436.509 81.2701ZM449.379 77.4808 455.285 78.5392 454.227 84.4451 448.321 83.3868ZM461.191 79.5975 467.097 80.6558 466.039 86.5618 460.133 85.5034ZM473.003 81.7142 478.909 82.7725 477.851 88.6784 471.945 87.6201ZM484.815 83.8309 490.721 84.8892 489.662 90.7951 483.757 89.7368ZM496.627 85.9475 502.533 87.0059 501.474 92.9118 495.568 91.8534ZM508.439 88.0642 514.344 89.1225 513.286 95.0285 507.38 93.9701ZM520.25 90.1809 525.558 91.1319 524.499 97.0378 519.192 96.0868ZM523.662 84.6967 539.792 96.7306 520.487 102.414Z" fill="#7F7F7F" transform="matrix(-1 -8.74228e-08 -8.74228e-08 1 1718.79 1388)"/><text font-family="Calibri,Calibri_MSFontService,sans-serif" font-weight="400" font-size="43" transform="translate(1490.5 -20)">VARCALL<tspan x="153.127" y="0">-</tspan>Workflow<tspan x="28.5969" y="2468">rules.varcall.input</tspan><tspan font-size="40" x="-911.981" y="1317">set </tspan><tspan font-size="40" x="-854.361" y="1317">1</tspan><tspan font-weight="700" font-size="40" x="-925.555" y="1365">merge </tspan><tspan font-weight="700" font-size="40" x="-907.255" y="1413">files</tspan><tspan font-weight="700" font-size="41" x="-758.059" y="179">set </tspan><tspan font-weight="700" font-size="41" x="-697.339" y="179">1</tspan><tspan font-size="40" x="-1275.29" y="1027">sample</tspan><tspan font-size="40" x="-1158.46" y="1027">1 </tspan><tspan font-weight="700" font-size="40" x="-1259.27" y="1075">merge</tspan><tspan font-weight="700" font-size="40" x="-1240.96" y="1123">files</tspan></text><path d="M588 362.975 588.955 477.646 582.955 477.696 582 363.025ZM585.955 477.671 600.855 465.547 586.105 495.671 570.856 465.797Z"/><path d="M589 592.957 589.743 645.102 583.744 645.187 583 593.043ZM586.743 645.144 601.571 632.932 587 663.143 571.574 633.359Z"/><path d="M590 761 590 793.857 584 793.857 584 761ZM587 793.857 602 781.857 587 811.857 572 781.857Z"/><path d="M590.998 909.885 592.634 952.72 586.638 952.949 585.002 910.115ZM589.636 952.835 604.167 940.271 590.323 970.822 574.189 941.416Z"/></g></svg>